<svg width="1197" height="1311" xmlns="http://www.w3.org/2000/svg" xmlns:xlink="http://www.w3.org/1999/xlink" xml:space="preserve" overflow="hidden"><g transform="translate(-517 -435)"><g><path d="M1061 536.5C1061 585.378 1021.38 625 972.5 625 923.624 625 884 585.378 884 536.5 884 487.623 923.624 448 972.5 448 1021.38 448 1061 487.622 1061 536.5Z" fill="#66CC66" fill-rule="evenodd" fill-opacity="1"/><path d="M1362 539.5C1362 588.378 1322.38 628 1273.5 628 1224.62 628 1185 588.378 1185 539.5 1185 490.623 1224.62 451 1273.5 451 1322.38 451 1362 490.622 1362 539.5Z" fill="#66CC66" fill-rule="evenodd" fill-opacity="1"/><path d="M1211 525C1211 573.6 1171.6 613 1123 613 1074.4 613 1035 573.602 1035 525 1035 476.4 1074.4 437 1123 437 1171.6 437 1211 476.398 1211 525Z" fill="#66CC66" fill-rule="evenodd" fill-opacity="1"/><path d="M1119.66 551.021C786.081 548.182 515.182 819.175 518.021 1152.66 520.768 1476.49 785.417 1741.23 1109.34 1743.98 1442.92 1746.82 1713.82 1475.83 1710.98 1142.34 1708.14 818.511 1443.49 553.768 1119.66 551.021ZM851.793 1167.72C860.029 1177.85 875.369 1177.94 883.702 1167.9L1079.04 932.514C1087.56 922.193 1101.1 916.134 1115.3 916.134 1120.23 916.134 1125.06 916.891 1129.7 918.217 1147.59 923.614 1159.71 938.386 1160.66 955.335 1160.76 956.281 1160.76 957.132 1160.76 958.08L1160.76 1144.04C1160.76 1164.97 1186.89 1174.44 1200.24 1158.34L1327.12 1005.52C1335.64 995.196 1349.18 989.137 1363.38 989.137 1363.38 989.137 1363.57 989.137 1363.67 989.137 1377.97 989.232 1391.51 995.482 1400.03 1005.9L1453.15 1071.42C1488.94 1115.54 1560.33 1090.26 1560.33 1033.45 1560.33 1033.45 1559.95 990.274 1559.29 955.239 1559.1 945.012 1573.11 941.984 1577.28 951.357 1605.21 1014.8 1619.99 1083.82 1619.99 1155.22 1619.99 1209.09 1611.56 1261.74 1595.46 1311.55 1588.08 1334.46 1558.34 1340.23 1543.19 1321.58L1378.82 1118.95C1370.67 1108.82 1355.24 1108.73 1346.91 1118.76L1151.57 1354.16C1143.05 1364.47 1129.51 1370.53 1115.3 1370.53 1110.38 1370.53 1105.55 1369.78 1100.91 1368.45 1083.02 1363.06 1070.9 1348.28 1069.95 1331.33 1069.86 1330.39 1069.86 1329.54 1069.86 1328.59L1069.86 1142.62C1069.86 1121.7 1043.72 1112.23 1030.37 1128.33L903.492 1281.15C894.97 1291.47 881.43 1297.53 867.227 1297.53 867.227 1297.53 867.038 1297.53 866.942 1297.53 852.644 1297.44 839.104 1291.19 830.582 1280.77L777.464 1215.25C741.672 1171.12 670.279 1196.41 670.279 1253.22L670.279 1360.97C670.279 1370.06 657.779 1372.81 653.992 1364.57 624.45 1299.71 608.827 1228.6 608.827 1155.12 608.827 1094.14 619.526 1034.87 640.073 979.384 648.217 957.323 677.097 952.304 691.961 970.578L851.793 1167.72Z" fill="#FF6666" fill-rule="evenodd" fill-opacity="1"/></g></g></svg>