<svg width="2879" height="248" xmlns="http://www.w3.org/2000/svg" xmlns:xlink="http://www.w3.org/1999/xlink" xml:space="preserve" overflow="hidden"><g transform="translate(-760 -1113)"><g><path d="M3448.64 1247.17C3445.81 1245.89 3442.61 1248.09 3442.61 1251.21L3442.61 1333.3 3442.59 1333.3C3442.59 1336.41 3445.77 1338.61 3448.6 1337.35 3454.9 1334.51 3460.59 1330.2 3465.29 1324.63 3473.42 1314.96 3477.63 1302.71 3477.12 1290.09 3476.64 1278.26 3471.97 1266.95 3463.98 1258.27 3459.58 1253.48 3454.33 1249.72 3448.64 1247.17ZM3594.76 1243.3C3582.12 1243.3 3571.83 1252.77 3571.83 1264.41L3571.83 1320.09C3571.83 1331.73 3582.12 1341.2 3594.76 1341.2 3607.4 1341.2 3617.67 1331.73 3617.67 1320.09L3617.67 1264.41C3617.67 1252.77 3607.4 1243.3 3594.76 1243.3ZM3224.29 1224.61 3305.83 1224.61C3310.95 1224.61 3315.14 1228.61 3315.14 1233.55 3315.14 1238.48 3310.97 1242.49 3305.83 1242.49L3283.66 1242.49C3278.87 1242.49 3274.98 1246.39 3274.98 1251.2L3274.98 1350.97C3274.98 1356.31 3269.85 1359.91 3265.06 1359.91 3260.27 1359.91 3255.14 1356.31 3255.14 1350.97L3255.14 1251.2C3255.14 1246.39 3251.25 1242.49 3246.46 1242.49L3224.29 1242.49C3219.16 1242.49 3214.97 1238.48 3214.97 1233.55 3214.97 1228.61 3219.15 1224.61 3224.29 1224.61ZM3594.76 1224.59C3618.61 1224.59 3638 1242.45 3638 1264.41L3638 1320.09C3638 1342.05 3618.61 1359.91 3594.76 1359.91 3570.91 1359.91 3551.51 1342.05 3551.51 1320.09L3551.51 1264.41C3551.51 1242.45 3570.91 1224.59 3594.76 1224.59ZM3524.53 1224.59C3530.03 1224.59 3534.49 1229.01 3534.49 1234.42L3534.49 1350.07C3534.47 1355.49 3530.02 1359.89 3524.53 1359.89 3519.05 1359.89 3514.58 1355.48 3514.58 1350.07L3514.58 1234.42C3514.58 1228.99 3519.04 1224.59 3524.53 1224.59ZM3435.47 1224.59C3435.93 1224.59 3436.4 1224.61 3436.86 1224.66 3453.04 1226.18 3468.16 1233.76 3479.38 1245.96 3490.34 1257.86 3496.74 1273.28 3497.4 1289.37 3498.1 1306.43 3492.36 1323.11 3481.26 1336.28 3469.85 1349.8 3454.08 1358.17 3436.81 1359.84 3436.44 1359.89 3435.98 1359.91 3435.5 1359.91 3431.97 1359.91 3428.64 1358.6 3426.15 1356.2 3423.68 1353.85 3422.26 1350.56 3422.26 1347.23L3422.26 1237.27C3422.26 1233.94 3423.68 1230.66 3426.13 1228.3 3428.63 1225.9 3431.95 1224.59 3435.47 1224.59ZM3169.01 1224.59 3169.5 1224.59C3186.19 1224.59 3201.84 1234.82 3208.47 1250.08 3210.53 1254.85 3208.1 1260.31 3203.02 1262.26 3201.82 1262.72 3200.56 1262.96 3199.26 1262.96 3195.19 1262.96 3191.57 1260.67 3190.04 1257.12 3186.46 1248.85 3178.2 1243.28 3169.52 1243.28 3159.02 1243.41 3148.06 1251.39 3148.06 1263.08 3148.06 1273.94 3157.55 1282.82 3169.2 1282.89 3169.52 1282.89 3169.8 1282.91 3170.03 1282.93 3180.29 1283.35 3189.94 1287.36 3197.26 1294.26 3205.02 1301.55 3209.28 1311.2 3209.3 1321.38 3209.3 1331.62 3204.97 1341.3 3197.1 1348.63 3189.41 1355.78 3179.01 1359.89 3168.55 1359.89L3168.28 1359.89 3168.28 1359.91C3151.06 1359.77 3135.54 1348.91 3129.62 1332.88 3128.75 1330.52 3128.91 1327.98 3130.06 1325.73 3131.23 1323.48 3133.24 1321.79 3135.75 1320.98 3136.8 1320.64 3137.91 1320.46 3139.02 1320.46 3143.25 1320.46 3147.03 1322.98 3148.43 1326.74 3151.59 1335.31 3159.62 1341.13 3168.41 1341.2 3173.83 1341.2 3179.1 1339.07 3183.1 1335.36 3187.16 1331.57 3189.41 1326.62 3189.41 1321.4 3189.41 1310.51 3179.93 1301.62 3168.3 1301.59 3168 1301.59 3167.68 1301.57 3167.38 1301.55 3157.14 1301.09 3147.47 1297.07 3140.17 1290.18 3132.43 1282.89 3128.17 1273.28 3128.15 1263.1 3128.15 1252.72 3132.62 1242.97 3140.76 1235.64 3148.41 1228.74 3158.7 1224.71 3169.01 1224.59ZM3395.28 1224.57C3400.76 1224.57 3405.24 1228.72 3405.24 1233.81L3405.24 1328.91C3405.25 1329.44 3405.24 1329.65 3405.22 1329.99 3405.2 1330.25 3405.11 1331.14 3404.83 1332.15 3403.27 1337.49 3400.75 1341.16 3400.46 1341.55 3398.43 1344.43 3396.41 1346.24 3395.07 1347.44 3391.02 1351.08 3387.26 1353.1 3385.45 1354.06 3383.33 1355.19 3379.76 1357.11 3374.69 1358.42 3372.32 1359.04 3368.5 1359.79 3363.81 1359.88L3363.02 1359.91C3354 1359.91 3345.3 1357.39 3337.86 1352.62 3333.9 1350.08 3330.45 1347.02 3327.61 1343.49 3323.7 1338.64 3321.61 1334.81 3321.05 1331.46 3320.87 1330.32 3320.82 1329.38 3320.8 1328.75L3320.8 1233.94C3320.8 1229.02 3324.88 1224.93 3330.12 1224.61 3330.26 1224.59 3330.61 1224.59 3330.75 1224.59 3336.23 1224.59 3340.71 1228.74 3340.71 1233.83L3340.71 1326.23C3340.71 1327.36 3340.99 1328.46 3341.52 1329.4 3345.67 1336.8 3353.91 1341.39 3363.02 1341.39L3363.46 1341.39C3370.78 1341.27 3377.82 1337.99 3382.29 1332.61 3384.25 1330.27 3385.33 1327.27 3385.33 1324.21L3385.33 1233.92C3385.33 1229.01 3389.41 1224.91 3394.65 1224.59 3394.79 1224.57 3395.14 1224.57 3395.28 1224.57ZM873.525 1204.81C870.873 1204.81 868.345 1205.95 866.753 1207.88L830.281 1251.98C828.726 1253.86 825.861 1253.84 824.324 1251.94L794.481 1215.01C791.706 1211.59 786.314 1212.53 784.793 1216.66 780.956 1227.05 778.958 1238.16 778.958 1249.58 778.958 1263.35 781.876 1276.67 787.392 1288.82 788.099 1290.36 790.433 1289.85 790.433 1288.14L790.433 1267.96C790.433 1257.31 803.763 1252.58 810.445 1260.84L820.363 1273.12C821.955 1275.07 824.483 1276.24 827.152 1276.26 827.17 1276.26 827.205 1276.26 827.205 1276.26 829.857 1276.26 832.385 1275.12 833.976 1273.19L857.667 1244.56C860.159 1241.55 865.038 1243.32 865.038 1247.24L865.038 1282.08C865.038 1282.25 865.038 1282.41 865.056 1282.59 865.233 1285.77 867.496 1288.53 870.837 1289.54 871.704 1289.79 872.605 1289.94 873.525 1289.94 876.177 1289.94 878.704 1288.8 880.296 1286.87L916.768 1242.77C918.324 1240.89 921.205 1240.91 922.726 1242.81L953.417 1280.76C956.246 1284.26 961.797 1283.18 963.176 1278.88 966.182 1269.55 967.755 1259.69 967.755 1249.6 967.755 1236.22 964.997 1223.29 959.781 1211.41 959.003 1209.65 956.387 1210.22 956.422 1212.14 956.546 1218.7 956.617 1226.79 956.617 1226.79 956.617 1237.43 943.287 1242.17 936.604 1233.9L926.686 1221.63C925.095 1219.67 922.567 1218.5 919.897 1218.49 919.879 1218.49 919.844 1218.49 919.844 1218.49 917.192 1218.49 914.664 1219.62 913.073 1221.56L889.383 1250.18C886.89 1253.2 882.011 1251.43 882.011 1247.51L882.011 1212.67C882.011 1212.49 882.011 1212.33 881.993 1212.15 881.816 1208.98 879.553 1206.21 876.212 1205.2 875.346 1204.95 874.444 1204.81 873.525 1204.81ZM2585.95 1174.72C2584.5 1174.69 2583.04 1175.48 2582.41 1177.1L2566.29 1218.86C2564.59 1223.26 2567.83 1227.98 2572.51 1227.98L2597.63 1227.98C2602.25 1227.99 2605.47 1223.44 2603.96 1219.09L2589.41 1177.23C2588.84 1175.59 2587.4 1174.74 2585.95 1174.72ZM1418.33 1141.91C1371.99 1145.57 1334.44 1183.24 1330.78 1229.75 1326.13 1288.85 1374.92 1337.83 1433.85 1333.16 1480.19 1329.51 1517.74 1291.83 1521.4 1245.32 1526.05 1186.22 1477.25 1137.25 1418.33 1141.91ZM1838.65 1141.77C1834.81 1141.56 1831.56 1144.63 1831.56 1148.47L1831.56 1217.05C1831.56 1223.19 1836.33 1228.31 1842.43 1228.62 1844.16 1228.7 1845.9 1228.74 1847.61 1228.74 1866.07 1228.74 1894.67 1219.05 1902.12 1203.44 1908.15 1190.76 1902.72 1177.21 1901.57 1174.62 1893.29 1156 1869.02 1143.49 1838.65 1141.77ZM2050.96 1141.75C2004.57 1145.42 1967 1183.13 1963.34 1229.66 1958.69 1288.82 2007.52 1337.81 2066.48 1333.14 2112.87 1329.49 2150.44 1291.78 2154.1 1245.24 2158.75 1186.08 2109.92 1137.09 2050.96 1141.75ZM1434.01 1115.43C1494.7 1119.28 1543.95 1168.7 1547.79 1229.57 1552.44 1303.43 1491.75 1364.31 1418.15 1359.65 1357.46 1355.8 1308.2 1306.38 1304.37 1245.48 1299.72 1171.64 1360.41 1110.76 1434.01 1115.43ZM2066.66 1115.25C2127.4 1119.1 2176.69 1168.55 2180.53 1229.5 2185.18 1303.42 2124.45 1364.33 2050.8 1359.66 1990.05 1355.81 1940.76 1306.36 1936.93 1245.41 1932.28 1171.5 1993.01 1110.59 2066.66 1115.25ZM1831.79 1115.18C1876.52 1115.18 1913.98 1134.5 1927.26 1164.4 1929.98 1170.52 1938.02 1192.2 1927.52 1214.26 1920.18 1229.66 1905.33 1241.95 1885.69 1248.87 1885.41 1248.98 1885.13 1249.07 1884.84 1249.17 1875.1 1252.51 1872.36 1264.98 1880.04 1271.88L1952.56 1337.19C1955.28 1339.64 1956.82 1342.95 1956.87 1346.5 1956.94 1350.03 1955.54 1353.38 1952.93 1355.92 1950.29 1358.49 1946.74 1359.91 1942.94 1359.91 1939.35 1359.91 1935.94 1358.62 1933.32 1356.28L1837.13 1269.62C1834.97 1267.69 1831.56 1269.22 1831.56 1272.13L1831.56 1346.73C1831.56 1354 1825.3 1359.91 1817.61 1359.91 1809.92 1359.91 1803.66 1354 1803.66 1346.73L1803.66 1129.03C1803.66 1122.24 1809.05 1116.6 1816.2 1115.93 1821.41 1115.43 1826.66 1115.18 1831.79 1115.18ZM2849.23 1115.07C2853.26 1115.13 2856.88 1116.65 2859.5 1119.35 2861.92 1121.83 2863.21 1125.08 2863.16 1128.47L2862.52 1347.21C2862.43 1353.08 2857.8 1357.8 2851.86 1359.41 2850.66 1359.79 2849.37 1359.95 2848.06 1359.95 2843.34 1359.95 2838.99 1357.71 2836.41 1353.99L2728.9 1198.85C2723.3 1190.76 2710.66 1194.75 2710.66 1204.58L2710.66 1346.71C2710.66 1354 2704.4 1359.93 2696.71 1359.93 2689.02 1359.93 2682.76 1354 2682.76 1346.71L2682.76 1128.34C2682.76 1122.42 2686.77 1117.33 2692.76 1115.66 2694.04 1115.3 2695.36 1115.13 2696.69 1115.13 2701.41 1115.13 2705.76 1117.36 2708.34 1121.09L2816.98 1277.86C2822.53 1285.87 2835.06 1282.04 2835.22 1272.27L2835.29 1128.09C2835.4 1120.91 2841.66 1115.07 2849.23 1115.07ZM2586.78 1115.02C2586.81 1115.02 2586.97 1115.02 2587.03 1115.02 2593.04 1115.11 2598.29 1118.64 2600.09 1123.84L2676.46 1343.66C2677.51 1346.7 2677.26 1349.94 2675.78 1352.8 2674.08 1356.01 2670.97 1358.44 2667.2 1359.45 2665.88 1359.81 2664.51 1360 2663.15 1360 2657.04 1360 2651.68 1356.45 2649.86 1351.18L2622.44 1272.25C2618.46 1260.81 2607.71 1253.15 2595.62 1253.15L2572.51 1253.15C2560.79 1253.15 2550.27 1260.38 2546.03 1271.35L2515.05 1351.56C2513.11 1356.59 2507.82 1360 2501.88 1360 2500.38 1360 2498.88 1359.79 2497.45 1359.34 2493.73 1358.23 2490.69 1355.71 2489.12 1352.48 2487.7 1349.57 2487.56 1346.31 2488.73 1343.29L2573.61 1123.46C2575.55 1118.43 2580.84 1115.02 2586.78 1115.02ZM1025.42 1115.02C1029.84 1115.02 1034.03 1117.15 1036.65 1120.73L1148.36 1273.08C1151.02 1276.7 1156.39 1276.72 1159.08 1273.14L1273.6 1120.59C1276.22 1117.1 1280.39 1115.02 1284.74 1115.02 1287.08 1115.02 1289.41 1115.62 1291.46 1116.76 1295.92 1119.21 1298.67 1124 1298.67 1129.26L1298.67 1344.76C1298.69 1349.85 1296.38 1354.86 1292.11 1357.68 1289.41 1359.47 1286.28 1360.23 1282.94 1359.81 1276.03 1358.92 1270.79 1352.83 1270.79 1345.69L1270.79 1199.22C1270.79 1190.11 1259.23 1186.22 1253.77 1193.51L1164.68 1312.18C1162.07 1315.67 1157.89 1317.75 1153.55 1317.75 1149.11 1317.73 1144.92 1315.6 1142.32 1312.05L1107.7 1264.85C1086.05 1235.3 1039.36 1250.68 1039.36 1287.36L1039.36 1345.69C1039.36 1352.85 1034.14 1358.92 1027.21 1359.81 1026.61 1359.88 1025.99 1359.93 1025.41 1359.93 1021.09 1359.93 1017.06 1357.96 1014.36 1354.47 1012.36 1351.89 1011.48 1348.63 1011.48 1345.38L1011.48 1129.26C1011.48 1123.98 1014.25 1119.17 1018.72 1116.74 1020.79 1115.62 1023.11 1115.02 1025.42 1115.02ZM2992.69 1115C3036.11 1115 3067.56 1141.11 3079.51 1152.87 3084.45 1157.73 3085.15 1165.77 3080.52 1170.93 3077.48 1174.34 3072.97 1175.84 3068.38 1174.92 3065.88 1174.43 3063.66 1173.06 3061.84 1171.27 3052.31 1161.85 3026.95 1140.55 2992.59 1140.55 2992.11 1140.55 2991.63 1140.55 2991.15 1140.56 2944.59 1141.42 2894.73 1180.26 2894.36 1236.79 2894.03 1285.07 2934.56 1329.92 2982.53 1334 3019.72 1337.15 3053.33 1319.13 3072.02 1290.15 3083.1 1272.94 3070.45 1250.24 3050.03 1250.24L2991.3 1250.24C2985.21 1250.24 2979.7 1246.12 2978.48 1240.14 2976.8 1231.93 2983.04 1224.69 2990.94 1224.69L3100.2 1224.69C3107.24 1224.69 3112.93 1230.48 3112.93 1237.54 3112.89 1305.01 3058.19 1359.91 2990.94 1359.91 2958.54 1359.91 2927.93 1347.1 2904.77 1323.87 2881.63 1300.63 2868.9 1269.94 2868.9 1237.47 2868.9 1165.56 2931.89 1116.1 2990.71 1115.02 2991.37 1115 2992.04 1115 2992.69 1115ZM2209.12 1115C2216.81 1115 2223.07 1121.28 2223.07 1129L2223.07 1275.71C2223.07 1284.83 2234.63 1288.71 2240.09 1281.42L2329.07 1162.9C2330.64 1160.79 2332.73 1159.03 2335.19 1158.11 2341.34 1155.78 2347.97 1157.98 2351.56 1162.88L2386.17 1210.08C2407.83 1239.63 2454.52 1224.25 2454.52 1187.57L2454.52 1129.25C2454.52 1122.08 2459.74 1116.01 2466.67 1115.13 2467.27 1115.06 2467.89 1115 2468.47 1115 2476.16 1115 2482.42 1121.28 2482.42 1129L2482.42 1345.67C2482.42 1350.95 2479.64 1355.76 2475.17 1358.19 2473.08 1359.31 2470.77 1359.91 2468.45 1359.91 2464.03 1359.91 2459.84 1357.78 2457.23 1354.22L2345.49 1201.85C2342.84 1198.23 2337.47 1198.21 2334.78 1201.79L2220.25 1354.34C2217.64 1357.84 2213.47 1359.91 2209.12 1359.91 2206.78 1359.91 2204.47 1359.31 2202.4 1358.17 2197.94 1355.73 2195.17 1350.94 2195.17 1345.67L2195.17 1129.25C2195.17 1122.08 2200.38 1116.01 2207.31 1115.13 2207.91 1115.06 2208.53 1115 2209.12 1115ZM1677.68 1115C1721.1 1115 1752.55 1141.11 1764.52 1152.87 1769.45 1157.73 1770.16 1165.77 1765.53 1170.93 1762.49 1174.34 1757.98 1175.84 1753.38 1174.92 1750.89 1174.43 1748.66 1173.06 1746.84 1171.27 1737.31 1161.85 1711.96 1140.55 1677.59 1140.55 1677.11 1140.55 1676.64 1140.55 1676.16 1140.56 1629.59 1141.42 1579.74 1180.26 1579.37 1236.79 1579.03 1285.07 1619.57 1329.92 1667.53 1334 1704.43 1337.14 1737.81 1319.42 1756.58 1290.84 1768.02 1273.44 1754.99 1250.24 1734.22 1250.24L1676.32 1250.24C1670.24 1250.24 1664.72 1246.12 1663.5 1240.14 1661.82 1231.93 1668.06 1224.69 1675.97 1224.69L1785.22 1224.69C1792.26 1224.69 1797.95 1230.48 1797.95 1237.54 1797.9 1305.01 1743.18 1359.91 1675.93 1359.91 1643.52 1359.91 1612.92 1347.1 1589.76 1323.87 1566.62 1300.63 1553.89 1269.94 1553.89 1237.47 1553.89 1165.56 1616.88 1116.1 1675.7 1115.02 1676.35 1115 1677.03 1115 1677.68 1115ZM874.922 1115C879.482 1115 883.609 1116.86 886.598 1119.86L889.56 1127.03 891.373 1122.64C894.361 1119.64 898.489 1117.79 903.049 1117.79 912.169 1117.79 919.561 1125.21 919.561 1134.36L915.234 1144.84 917.022 1145.41C956.453 1162.42 984.347 1201.69 984.744 1247.19 985.275 1309.66 934.694 1360.43 872.411 1359.89 811.93 1359.38 762.517 1309.78 762.004 1249.12 761.606 1202.27 789.958 1162 830.435 1145.01L834.423 1143.79 830.299 1133.81C830.299 1124.66 837.692 1117.24 846.811 1117.24 851.371 1117.24 855.499 1119.09 858.487 1122.09L860.405 1126.74 863.246 1119.86C866.234 1116.86 870.362 1115 874.922 1115Z" fill="#FFFFFF" fill-rule="evenodd" fill-opacity="1"/></g></g></svg>